<svg width="92" height="40" viewBox="0 0 92 40" fill="none" xmlns="http://www.w3.org/2000/svg">
<path d="M41.7753 4.04465H45.7409V7.63989H41.7753V20.2232L37.8096 16.1786V7.63989H33.7336V4.04465H37.8096V0H41.7753V4.04465Z" fill="white"/>
<path d="M37.7911 23.8185V39.997H41.7646V29.6607C41.7646 29.1104 41.7568 28.7459 42.1974 28.3125C42.638 27.8792 43.1082 27.8762 43.5193 27.8631H45.2818C45.8214 27.8631 46.1788 27.8631 46.6037 28.3125C47.0286 28.7619 47.0443 29.1235 47.0443 29.6607L47.0835 39.997H51.0148V29.774C51.0148 29.4464 50.9891 29.1254 50.9377 28.8109C50.8478 28.3654 50.7129 27.9264 50.533 27.494C50.2247 26.7733 49.8007 26.1378 49.2611 25.5874C48.7344 25.0502 48.1177 24.6243 47.4111 24.3098C46.7045 24.0085 46.0527 23.8185 45.2818 23.8185H43.5193C43.0745 23.8185 37.7911 23.8185 37.7911 23.8185Z" fill="white"/>
<path fill-rule="evenodd" clip-rule="evenodd" d="M60.2631 9.88691V14.381C60.2631 14.8304 60.2631 15.7292 59.8225 16.628C59.3819 17.5268 58.9413 17.9762 58.5006 18.4256C58.06 18.875 57.6194 19.3244 56.7381 19.7738C55.8569 20.2232 55.293 20.2101 54.535 20.2232L52.7725 20.2056C52.0016 20.2056 51.4506 20.2232 50.5693 19.7738C49.6881 19.3244 49.2474 18.875 48.8068 18.4256C48.3662 17.9762 47.9256 17.5268 47.4849 16.628C47.0443 15.7292 47.0443 14.8304 47.0443 14.381V9.88691C47.0443 9.55932 47.0443 9.88691 47.0443 8.9881C47.0443 8.08929 47.3179 7.59669 47.4849 7.19048C47.8061 6.45668 48.2672 5.9301 48.8068 5.39286C49.3336 4.82941 49.8161 4.6452 50.5228 4.34381C51.2165 4.02933 51.9553 4.04465 52.739 4.04465H54.4541C55.1993 4.05775 55.9252 4.04243 56.6318 4.34381C57.1971 4.57968 58.051 4.99975 58.5006 5.39286C58.4235 5.32734 58.5649 5.45838 58.5006 5.39286C59.0274 5.94321 59.5013 6.46979 59.8225 7.19048C60.0281 7.68841 60.1861 8.46396 60.2631 8.9881C60.2888 9.23707 60.2631 9.63794 60.2631 9.88691ZM55.8569 15.7292C56.2975 15.2798 56.2975 14.4819 56.2975 13.9316V9.88691C56.2975 9.43751 56.2975 8.5387 55.8569 8.08929C55.4162 7.63989 54.9461 7.63989 54.535 7.63989H52.7725C52.2329 7.63989 51.8912 7.63989 51.4506 8.08929C51.01 8.5387 51.01 9.47632 51.01 9.88691V13.9316C51.01 14.3902 51.01 15.2798 51.4506 15.7292C51.8912 16.1786 52.3228 16.1786 52.7725 16.1786H54.535C55.0489 16.1655 55.4162 16.1786 55.8569 15.7292Z" fill="white"/>
<path d="M30.4031 19.3244L25.1156 13.9316V33.256L0 33.2546L6.18708 39.5462L30.4031 39.5476V19.3244Z" fill="white"/>
<path d="M13.6592 13.9316H9.25297L17.1843 22.0208L9.25297 30.1101H13.6592L21.5906 22.0208L13.6592 13.9316Z" fill="white"/>
<path fill-rule="evenodd" clip-rule="evenodd" d="M63.3877 7.54763C63.7089 6.81383 64.1393 6.17831 64.6789 5.64107C65.2056 5.07761 65.8223 4.6452 66.5289 4.34381C67.1917 4.04339 67.8119 4.04393 68.5493 4.04458C68.5838 4.04462 68.6185 4.04465 68.6536 4.04465H70.4161C70.8876 4.05533 71.3864 4.22549 71.8609 4.38741C71.9683 4.42403 72.0743 4.46022 72.1786 4.49405L72.1562 0.982765V0H76.1258V20.2232C75.4882 20.2408 76.7424 20.2101 76.1258 20.2232H68.6351C67.8642 20.2232 67.1264 20.0484 66.3941 19.7339C65.8288 19.498 65.3213 19.1836 64.8716 18.7904L64.6789 18.5939C64.1136 18.0304 63.6832 17.3949 63.3877 16.6873C63.1821 16.2156 63.0408 15.7177 62.9637 15.1935C62.938 14.9315 62.9252 14.6759 62.9252 14.427V9.80798C62.9252 9.4804 62.9509 9.15936 63.0023 8.84487C63.0922 8.38625 63.2207 7.95384 63.3877 7.54763ZM72.0791 14.9184C71.9892 15.1804 71.8414 15.4228 71.6359 15.6456C71.289 15.9994 70.8586 16.1828 70.3447 16.1959H68.6488C68.1991 16.1959 67.8137 16.0715 67.4925 15.8225C67.4026 15.757 67.3255 15.6915 67.2612 15.6259C66.9914 15.2853 66.8566 14.8856 66.8566 14.427V9.88691C66.8566 9.33656 66.9535 8.90559 67.3132 8.5387C67.6623 8.19533 68.1216 8.08898 68.6351 8.08929H70.4161C70.3394 8.09172 70.493 8.08929 70.4161 8.08929C70.7495 8.07871 71.3897 8.23838 71.7195 8.5387C72.0941 8.87984 72.1601 9.40208 72.1601 9.88691L72.1369 14.427C72.1369 14.5973 72.1176 14.7611 72.0791 14.9184Z" fill="white"/>
<path d="M30.4031 19.3244L25.1156 13.9316V33.256L0 33.2546L6.18708 39.5462L30.4031 39.5476V19.3244Z" fill="white"/>
<path d="M0 20.2232L5.28754 25.6161V10.3363L27.7411 10.3377L21.5723 4.04604L0 4.04465V20.2232Z" fill="white"/>
<path fill-rule="evenodd" clip-rule="evenodd" d="M91.9886 9.88691V14.381C91.9886 14.8304 91.9886 15.7292 91.548 16.628C91.1073 17.5268 90.6667 17.9762 90.2261 18.4256C89.7854 18.875 89.3448 19.3244 88.4636 19.7738C87.5823 20.2232 87.0184 20.2101 86.2604 20.2232L84.4979 20.2056C83.727 20.2056 83.176 20.2232 82.2948 19.7738C81.4135 19.3244 80.9729 18.875 80.5322 18.4256C80.0916 17.9762 79.651 17.5268 79.2104 16.628C78.7697 15.7292 78.7697 14.8304 78.7697 14.381V9.88691C78.7697 9.55932 78.7697 9.88691 78.7697 8.9881C78.7697 8.08929 79.0433 7.59669 79.2104 7.19048C79.5316 6.45668 79.9927 5.9301 80.5322 5.39286C81.059 4.82941 81.5416 4.6452 82.2482 4.34381C82.942 4.02933 83.6807 4.04465 84.4644 4.04465H86.1796C86.9247 4.05775 87.6506 4.04243 88.3572 4.34381C88.9225 4.57968 89.7764 4.99975 90.2261 5.39286C90.149 5.32734 90.2903 5.45838 90.2261 5.39286C90.7528 5.94321 91.2268 6.46979 91.548 7.19048C91.7535 7.68841 91.9115 8.46396 91.9886 8.9881C92.0143 9.23707 91.9886 9.63794 91.9886 9.88691ZM87.5823 15.7292C88.0229 15.2798 88.0229 14.4819 88.0229 13.9316V9.88691C88.0229 9.43751 88.0229 8.5387 87.5823 8.08929C87.1417 7.63989 86.6715 7.63989 86.2604 7.63989H84.4979C83.9583 7.63989 83.6166 7.63989 83.176 8.08929C82.7354 8.5387 82.7354 9.47632 82.7354 9.88691V13.9316C82.7354 14.3902 82.7354 15.2798 83.176 15.7292C83.6166 16.1786 84.0482 16.1786 84.4979 16.1786H86.2604C86.7743 16.1655 87.1417 16.1786 87.5823 15.7292Z" fill="white"/>
<path fill-rule="evenodd" clip-rule="evenodd" d="M83.176 29.6607V34.1548C83.176 34.6042 83.176 35.503 82.7354 36.4018C82.2948 37.3006 81.8541 37.75 81.4135 38.1994C80.9729 38.6488 80.5322 39.0982 79.651 39.5476C78.7697 39.997 78.2059 39.9839 77.4478 39.997L75.6853 39.9795C74.9145 39.9795 74.3634 39.997 73.4822 39.5476C72.6009 39.0982 72.1603 38.6488 71.7197 38.1994C71.2791 37.75 70.8384 37.3006 70.3978 36.4018C69.9572 35.503 69.9572 34.6042 69.9572 34.1548V29.6607C69.9572 29.3331 69.9572 29.6607 69.9572 28.7619C69.9572 27.8631 70.2308 27.3705 70.3978 26.9643C70.719 26.2305 71.1801 25.7039 71.7197 25.1667C72.2464 24.6032 72.729 24.419 73.4356 24.1176C74.1294 23.8032 74.8681 23.8185 75.6518 23.8185H77.367C78.1122 23.8316 78.8381 23.8163 79.5447 24.1176C80.11 24.3535 80.9638 24.7736 81.4135 25.1667C81.3364 25.1012 81.4778 25.2322 81.4135 25.1667C81.9403 25.717 82.4142 26.2436 82.7354 26.9643C82.941 27.4622 83.0989 28.2378 83.176 28.7619C83.2017 29.0109 83.176 29.4118 83.176 29.6607ZM78.7697 35.503C79.2104 35.0536 79.2104 34.2557 79.2104 33.7054V29.6607C79.2104 29.2113 79.2104 28.3125 78.7697 27.8631C78.3291 27.4137 77.859 27.4137 77.4478 27.4137H75.6853C75.1457 27.4137 74.8041 27.4137 74.3635 27.8631C73.9228 28.3125 73.9228 29.2501 73.9228 29.6607V33.7054C73.9228 34.164 73.9228 35.0536 74.3635 35.503C74.8041 35.9524 75.2357 35.9524 75.6853 35.9524H77.4478C77.9618 35.9393 78.3291 35.9524 78.7697 35.503Z" fill="white"/>
<path d="M58.0602 33.2589H63.3478V30.1131H58.0604L58.0602 33.2589Z" fill="white"/>
<path fill-rule="evenodd" clip-rule="evenodd" d="M67.3134 29.6637L67.3136 33.2589H63.3478H58.0602V33.7083C58.0602 34.167 58.0602 35.0565 58.5009 35.5059C58.9415 35.9554 59.3731 35.9554 59.8227 35.9554H61.5853L61.6569 35.9536C62.1339 35.9425 62.4873 35.9342 62.9071 35.5059C63.3478 35.0565 63.348 34.7081 63.348 34.1577H67.3134C67.3134 34.6071 67.3134 35.5059 66.8728 36.4048C66.4322 37.3036 65.9915 37.753 65.5509 38.2024C65.1103 38.6518 64.6696 39.1012 63.7884 39.5506C62.9496 39.9784 62.3983 39.9871 61.6934 39.9982L61.5853 40L59.8227 39.9824L59.7388 39.9824C59.011 39.9831 58.4685 39.9835 57.6196 39.5506C56.7383 39.1012 56.2977 38.6518 55.8571 38.2024C55.4165 37.753 54.9758 37.3036 54.5352 36.4048C54.0946 35.5059 54.0946 34.6071 54.0946 34.1577V29.6637V28.7649C54.0946 27.9858 54.3002 27.5119 54.4637 27.1349C54.4888 27.077 54.513 27.0213 54.5352 26.9673C54.8564 26.2335 55.3175 25.7069 55.8571 25.1696C56.3535 24.6386 56.8107 24.4444 57.4532 24.1716L57.4547 24.1709C57.4935 24.1545 57.5329 24.1377 57.573 24.1206C58.2359 23.8201 58.9399 23.8207 59.6849 23.8214L59.7892 23.8214H61.5044C61.5652 23.8225 61.6258 23.8234 61.6863 23.8242C62.3678 23.8341 63.0331 23.8438 63.6821 24.1206C64.2474 24.3564 65.1012 24.7765 65.5509 25.1696C66.0776 25.72 66.5516 26.2466 66.8728 26.9673C67.0783 27.4652 67.2363 28.2407 67.3134 28.7649C67.3311 28.9358 67.3245 29.1784 67.3186 29.3942C67.3159 29.4927 67.3134 29.5857 67.3134 29.6637ZM61.5853 27.4167C61.9964 27.4167 62.4665 27.4167 62.9071 27.8661C63.3478 28.3155 63.3478 29.2143 63.3478 29.6637V30.1131H58.0604L58.0602 29.6637C58.0602 29.2531 58.0602 28.3155 58.5009 27.8661C58.9415 27.4167 59.2831 27.4167 59.8227 27.4167H61.5853Z" fill="white"/>
</svg>
